<svg
  width="1600"
  height="560"
  viewBox="0 0 1600 560"
  fill="none"
  xmlns="http://www.w3.org/2000/svg"
>
  <defs>
    <linearGradient id="bg" x1="160" y1="40" x2="1460" y2="560" gradientUnits="userSpaceOnUse">
      <stop offset="0" stop-color="#08131A"/>
      <stop offset="0.55" stop-color="#0D2330"/>
      <stop offset="1" stop-color="#142B2B"/>
    </linearGradient>
    <radialGradient id="glowLeft" cx="0" cy="0" r="1" gradientUnits="userSpaceOnUse" gradientTransform="translate(300 210) rotate(22) scale(420 290)">
      <stop offset="0" stop-color="#1ED8C0" stop-opacity="0.28"/>
      <stop offset="1" stop-color="#1ED8C0" stop-opacity="0"/>
    </radialGradient>
    <radialGradient id="glowCenter" cx="0" cy="0" r="1" gradientUnits="userSpaceOnUse" gradientTransform="translate(800 280) rotate(90) scale(260 260)">
      <stop offset="0" stop-color="#7FE7FF" stop-opacity="0.22"/>
      <stop offset="1" stop-color="#7FE7FF" stop-opacity="0"/>
    </radialGradient>
    <radialGradient id="glowRight" cx="0" cy="0" r="1" gradientUnits="userSpaceOnUse" gradientTransform="translate(1290 270) rotate(-15) scale(380 300)">
      <stop offset="0" stop-color="#F2B66D" stop-opacity="0.26"/>
      <stop offset="1" stop-color="#F2B66D" stop-opacity="0"/>
    </radialGradient>
    <linearGradient id="beam" x1="0" y1="0" x2="1" y2="0">
      <stop offset="0" stop-color="#68F0DB" stop-opacity="0"/>
      <stop offset="0.45" stop-color="#68F0DB" stop-opacity="0.55"/>
      <stop offset="1" stop-color="#8EDCFF" stop-opacity="0.15"/>
    </linearGradient>
    <linearGradient id="beamWarm" x1="0" y1="0" x2="1" y2="0">
      <stop offset="0" stop-color="#8EDCFF" stop-opacity="0.12"/>
      <stop offset="0.55" stop-color="#F2B66D" stop-opacity="0.52"/>
      <stop offset="1" stop-color="#F2B66D" stop-opacity="0"/>
    </linearGradient>
    <linearGradient id="panelStroke" x1="748" y1="120" x2="852" y2="440" gradientUnits="userSpaceOnUse">
      <stop offset="0" stop-color="#C7F9FF" stop-opacity="0.85"/>
      <stop offset="1" stop-color="#62D7E8" stop-opacity="0.35"/>
    </linearGradient>
    <pattern id="grid" x="0" y="0" width="24" height="24" patternUnits="userSpaceOnUse">
      <path d="M24 0H0V24" stroke="#A9ECF2" stroke-opacity="0.08" stroke-width="1"/>
    </pattern>
    <pattern id="fringes" x="0" y="0" width="14" height="14" patternUnits="userSpaceOnUse" patternTransform="rotate(28)">
      <rect width="14" height="14" fill="transparent"/>
      <path d="M0 7H14" stroke="#D8FEFF" stroke-opacity="0.16" stroke-width="1.5"/>
      <path d="M0 2H14" stroke="#67F0DA" stroke-opacity="0.1" stroke-width="1"/>
    </pattern>
    <filter id="softBlur" x="-40%" y="-40%" width="180%" height="180%">
      <feGaussianBlur stdDeviation="18"/>
    </filter>
    <filter id="beamBlur" x="-25%" y="-25%" width="150%" height="150%">
      <feGaussianBlur stdDeviation="5"/>
    </filter>
    <filter id="cardShadow" x="-30%" y="-20%" width="160%" height="160%">
      <feDropShadow dx="0" dy="20" stdDeviation="18" flood-color="#02080B" flood-opacity="0.35"/>
    </filter>
    <clipPath id="panelClip">
      <rect x="742" y="112" width="116" height="336" rx="22"/>
    </clipPath>
  </defs>

  <rect width="1600" height="560" rx="28" fill="url(#bg)"/>
  <rect width="1600" height="560" rx="28" fill="url(#grid)"/>

  <ellipse cx="284" cy="206" rx="290" ry="190" fill="url(#glowLeft)"/>
  <ellipse cx="800" cy="280" rx="220" ry="220" fill="url(#glowCenter)"/>
  <ellipse cx="1288" cy="270" rx="286" ry="220" fill="url(#glowRight)"/>

  <g opacity="0.9">
    <circle cx="145" cy="153" r="6" fill="#7EF5E3"/>
    <circle cx="205" cy="214" r="9" fill="#9BE8FF"/>
    <circle cx="158" cy="281" r="5" fill="#7EF5E3"/>
    <circle cx="266" cy="122" r="12" fill="#F2B66D"/>
    <circle cx="300" cy="206" r="7" fill="#B6F5FF"/>
    <circle cx="236" cy="322" r="11" fill="#72E9D6"/>
    <circle cx="340" cy="278" r="6" fill="#F2B66D"/>
    <circle cx="385" cy="185" r="10" fill="#7EF5E3"/>
    <circle cx="428" cy="258" r="5" fill="#A6F6FF"/>
    <circle cx="330" cy="372" r="8" fill="#9BE8FF"/>
  </g>

  <g opacity="0.55">
    <path d="M140 153C280 126 532 158 742 196" stroke="url(#beam)" stroke-width="2.2"/>
    <path d="M204 214C350 214 544 224 742 244" stroke="url(#beam)" stroke-width="2"/>
    <path d="M158 281C322 309 515 316 742 310" stroke="url(#beam)" stroke-width="2.2"/>
    <path d="M236 322C380 342 566 352 742 360" stroke="url(#beam)" stroke-width="1.8"/>
    <path d="M266 122C420 132 598 162 742 220" stroke="url(#beam)" stroke-width="1.6"/>
    <path d="M330 372C463 382 596 386 742 402" stroke="url(#beam)" stroke-width="1.4"/>
  </g>

  <g filter="url(#beamBlur)" opacity="0.42">
    <path d="M188 188C332 178 542 210 730 236" stroke="#6DEEDA" stroke-width="10" stroke-linecap="round"/>
    <path d="M218 312C430 342 608 340 746 324" stroke="#79E5FF" stroke-width="12" stroke-linecap="round"/>
  </g>

  <g filter="url(#cardShadow)">
    <rect x="742" y="112" width="116" height="336" rx="22" fill="#0F2230" fill-opacity="0.82"/>
    <rect x="742" y="112" width="116" height="336" rx="22" stroke="url(#panelStroke)" stroke-width="2"/>
    <g clip-path="url(#panelClip)">
      <rect x="742" y="112" width="116" height="336" fill="url(#fringes)"/>
      <path d="M742 150C770 132 802 128 858 146" stroke="#BDF9FF" stroke-opacity="0.22" stroke-width="18"/>
      <path d="M742 238C784 212 812 208 858 226" stroke="#6DEEDA" stroke-opacity="0.24" stroke-width="20"/>
      <path d="M742 326C772 350 804 354 858 334" stroke="#F2B66D" stroke-opacity="0.18" stroke-width="22"/>
      <path d="M742 394C782 420 820 420 858 404" stroke="#A6F6FF" stroke-opacity="0.22" stroke-width="16"/>
    </g>
    <rect x="768" y="136" width="64" height="10" rx="5" fill="#D8FEFF" fill-opacity="0.14"/>
    <rect x="768" y="414" width="64" height="10" rx="5" fill="#D8FEFF" fill-opacity="0.08"/>
  </g>

  <g opacity="0.72">
    <path d="M858 194C1030 170 1188 176 1370 232" stroke="url(#beamWarm)" stroke-width="2.4"/>
    <path d="M858 244C1046 224 1206 230 1416 282" stroke="url(#beamWarm)" stroke-width="2"/>
    <path d="M858 308C1038 334 1182 346 1360 322" stroke="url(#beamWarm)" stroke-width="2.2"/>
    <path d="M858 360C1010 392 1172 404 1324 378" stroke="url(#beamWarm)" stroke-width="1.8"/>
  </g>

  <g filter="url(#softBlur)" opacity="0.35">
    <ellipse cx="1236" cy="276" rx="190" ry="76" fill="#F3B86B"/>
    <ellipse cx="1244" cy="276" rx="128" ry="48" fill="#7FE7FF"/>
  </g>

  <g opacity="0.82">
    <ellipse cx="1218" cy="240" rx="72" ry="26" stroke="#D9FEFF" stroke-opacity="0.46" stroke-width="2"/>
    <ellipse cx="1244" cy="276" rx="116" ry="42" stroke="#D7FEFF" stroke-opacity="0.52" stroke-width="2"/>
    <ellipse cx="1274" cy="316" rx="150" ry="56" stroke="#F2B66D" stroke-opacity="0.54" stroke-width="2"/>
    <ellipse cx="1306" cy="356" rx="184" ry="70" stroke="#A2F5FF" stroke-opacity="0.22" stroke-width="1.6"/>
    <path d="M1122 276H1452" stroke="#D9FEFF" stroke-opacity="0.18" stroke-width="1.5" stroke-dasharray="8 10"/>
    <path d="M1152 240H1288" stroke="#7FE7FF" stroke-opacity="0.15" stroke-width="1.5" stroke-dasharray="7 10"/>
  </g>

  <g opacity="0.9">
    <circle cx="1244" cy="276" r="8" fill="#FFF2D8"/>
    <circle cx="1184" cy="242" r="5" fill="#7EF5E3"/>
    <circle cx="1310" cy="312" r="6" fill="#F2B66D"/>
    <circle cx="1360" cy="280" r="4" fill="#A6F6FF"/>
  </g>

  <g opacity="0.6">
    <rect x="1066" y="136" width="178" height="88" rx="14" stroke="#B7F8FF" stroke-opacity="0.18"/>
    <rect x="1112" y="158" width="178" height="88" rx="14" stroke="#B7F8FF" stroke-opacity="0.14"/>
    <rect x="1158" y="180" width="178" height="88" rx="14" stroke="#B7F8FF" stroke-opacity="0.12"/>
  </g>

  <g opacity="0.7">
    <path d="M1088 173C1118 153 1154 154 1188 174" stroke="#7EF5E3" stroke-width="2" stroke-linecap="round"/>
    <path d="M1134 195C1166 175 1200 176 1234 196" stroke="#9BE8FF" stroke-width="2" stroke-linecap="round"/>
    <path d="M1182 217C1210 201 1242 203 1272 221" stroke="#F2B66D" stroke-width="2" stroke-linecap="round"/>
  </g>

  <g opacity="0.52">
    <text x="102" y="466" fill="#D6F8FB" fill-opacity="0.94" font-family="Avenir Next, Segoe UI, Helvetica, Arial, sans-serif" font-size="22" letter-spacing="4.2">SCENE PRIORS</text>
    <text x="709" y="494" fill="#D6F8FB" fill-opacity="0.94" font-family="Avenir Next, Segoe UI, Helvetica, Arial, sans-serif" font-size="22" letter-spacing="4.2">HOLOGRAM PLANE</text>
    <text x="1184" y="466" fill="#F8E1BE" fill-opacity="0.9" font-family="Avenir Next, Segoe UI, Helvetica, Arial, sans-serif" font-size="22" letter-spacing="4.2">PROPAGATED RECONSTRUCTION</text>
  </g>

  <g opacity="0.28">
    <path d="M0 486C220 454 414 450 592 506C724 548 868 552 1044 510C1256 460 1406 452 1600 490V560H0V486Z" fill="#0A151C"/>
  </g>
</svg>
